<?xml version="1.0" encoding="utf-8"?>
<!-- Generator: Adobe Illustrator 26.5.0, SVG Export Plug-In . SVG Version: 6.00 Build 0)  -->
<svg version="1.1" id="Capa_1" xmlns="http://www.w3.org/2000/svg" xmlns:xlink="http://www.w3.org/1999/xlink" x="0px" y="0px"
	 viewBox="0 0 1024 1024" style="enable-background:new 0 0 1024 1024;" xml:space="preserve">
<image style="overflow:visible;enable-background:new    ;" width="1696" height="2675" id="Imagen_4_00000175322023984702966290000004540906464576859058_" xlink:href="2729A1BEE7C6D09D.png"  transform="matrix(-0.489 0 0 0.425 983.856 -112.8641)">
</image>
<path id="Trazado_1" d="M644.9,293.3v87.5c-42.8-35.8-87-53.7-132.8-53.7c-50.4,0-92.9,18.1-127.4,54.3c-34.7,36-52.1,80-52.1,132.1
	c0,51.5,17.4,94.9,52.1,130.2c34.7,35.4,77.3,53,127.7,53c26,0,48.2-4.2,66.4-12.7c11.1-4.7,21.6-10.5,31.6-17.1
	c12-8,23.5-16.7,34.5-26.1v89.4c-40.5,23.5-86.5,36-133.4,36.1c-70.1,0-129.9-24.5-179.5-73.4c-49.3-49.3-74-108.8-74-178.5
	c0-62.5,20.6-118.1,61.9-167.1c50.8-59.9,116.6-89.9,197.2-89.9C561.2,257.6,603.8,269.5,644.9,293.3z"/>
</svg>
