<?xml version="1.0" encoding="utf-8"?>
<!-- Generator: Adobe Illustrator 26.5.0, SVG Export Plug-In . SVG Version: 6.00 Build 0)  -->
<svg version="1.1" id="Capa_1" xmlns="http://www.w3.org/2000/svg" xmlns:xlink="http://www.w3.org/1999/xlink" x="0px" y="0px"
	 viewBox="0 0 850.39 850.39" style="enable-background:new 0 0 850.39 850.39;" xml:space="preserve">
<style type="text/css">
	.st0{fill:#FFFFFF;}
</style>
<g>
	<g>
		<path class="st0" d="M150.14,202.72v19.21c-9.39-7.86-19.11-11.79-29.15-11.79c-11.07,0-20.39,3.98-27.97,11.93
			c-7.63,7.9-11.44,17.57-11.44,29.01c0,11.3,3.81,20.83,11.44,28.59c7.63,7.77,16.97,11.65,28.04,11.65
			c5.72,0,10.58-0.93,14.57-2.79c2.23-0.93,4.54-2.18,6.94-3.77c2.39-1.58,4.92-3.49,7.57-5.72v19.63
			c-9.3,5.28-19.06,7.92-29.29,7.92c-15.39,0-28.52-5.37-39.4-16.11c-10.83-10.83-16.25-23.9-16.25-39.19
			c0-13.72,4.53-25.94,13.6-36.68c11.16-13.16,25.6-19.74,43.31-19.74C131.77,194.87,141.12,197.49,150.14,202.72z"/>
		<path class="st0" d="M201.17,196.97v107.68h-16.25V196.97H201.17z"/>
		<path class="st0" d="M277.81,258.76l33.34,45.89h-19.88l-30.76-44.08h-2.93v44.08h-16.25V196.97h19.04
			c14.23,0,24.5,2.67,30.82,8.02c6.98,5.95,10.46,13.81,10.46,23.57c0,7.63-2.19,14.18-6.56,19.67
			C290.73,253.71,284.97,257.22,277.81,258.76z M257.58,246.41h5.16c15.39,0,23.08-5.88,23.08-17.64c0-11.02-7.49-16.53-22.46-16.53
			h-5.79V246.41z"/>
		<path class="st0" d="M418.74,202.72v19.21c-9.39-7.86-19.11-11.79-29.15-11.79c-11.07,0-20.39,3.98-27.97,11.93
			c-7.63,7.9-11.44,17.57-11.44,29.01c0,11.3,3.81,20.83,11.44,28.59c7.63,7.77,16.97,11.65,28.04,11.65
			c5.72,0,10.58-0.93,14.57-2.79c2.23-0.93,4.54-2.18,6.94-3.77c2.39-1.58,4.92-3.49,7.57-5.72v19.63
			c-9.3,5.28-19.06,7.92-29.29,7.92c-15.39,0-28.52-5.37-39.4-16.11c-10.83-10.83-16.25-23.9-16.25-39.19
			c0-13.72,4.53-25.94,13.6-36.68c11.16-13.16,25.6-19.74,43.31-19.74C400.37,194.87,409.72,197.49,418.74,202.72z"/>
		<path class="st0" d="M519.36,278.49h-46.1l-12,26.15h-17.5l53.28-114.44l51.4,114.44h-17.78L519.36,278.49z M512.73,263.22
			l-15.97-36.61l-16.74,36.61H512.73z"/>
		<path class="st0" d="M576.18,304.65V196.97h22.59c10.83,0,19.39,1.07,25.67,3.21c6.74,2.09,12.85,5.65,18.34,10.67
			c11.11,10.14,16.67,23.46,16.67,39.96c0,16.55-5.79,29.94-17.37,40.17c-5.81,5.12-11.9,8.67-18.27,10.67c-5.95,2-14.39,3-25.31,3
			H576.18z M592.43,289.37h7.32c7.3,0,13.37-0.77,18.2-2.3c4.83-1.63,9.21-4.21,13.11-7.74c8-7.3,12-16.81,12-28.52
			c0-11.81-3.95-21.39-11.86-28.73c-7.11-6.56-17.6-9.83-31.45-9.83h-7.32V289.37z"/>
		<path class="st0" d="M752.12,278.49h-46.1l-12,26.15h-17.5l53.28-114.44l51.4,114.44h-17.78L752.12,278.49z M745.5,263.22
			l-15.97-36.61l-16.74,36.61H745.5z"/>
	</g>
	<g>
		<path class="st0" d="M84.43,326.6h-8.81v6.08h8.5v3.59h-8.5v12.04h-3.82v-25.28h12.63V326.6z"/>
		<path class="st0" d="M110.69,326.6h-10.14v6.08h9.84v3.59h-9.84v8.45h10.14v3.59H96.73v-25.28h13.95V326.6z"/>
		<path class="st0" d="M137.87,326.76l-3.09,1.83c-0.58-1-1.13-1.66-1.65-1.97c-0.55-0.35-1.25-0.52-2.11-0.52
			c-1.06,0-1.94,0.3-2.64,0.9c-0.7,0.59-1.05,1.33-1.05,2.23c0,1.23,0.92,2.23,2.75,2.98l2.52,1.03c2.05,0.83,3.55,1.84,4.5,3.04
			c0.95,1.2,1.42,2.66,1.42,4.4c0,2.33-0.77,4.25-2.32,5.77c-1.56,1.53-3.5,2.29-5.81,2.29c-2.19,0-4.01-0.65-5.44-1.96
			c-1.41-1.3-2.29-3.14-2.64-5.49l3.86-0.85c0.18,1.48,0.48,2.51,0.92,3.08c0.79,1.09,1.93,1.64,3.44,1.64
			c1.19,0,2.18-0.4,2.96-1.19c0.79-0.8,1.18-1.81,1.18-3.03c0-0.49-0.07-0.94-0.2-1.35c-0.14-0.41-0.35-0.79-0.64-1.13
			c-0.29-0.34-0.66-0.67-1.12-0.97c-0.46-0.3-1-0.59-1.64-0.86l-2.44-1.01c-3.46-1.46-5.19-3.6-5.19-6.41c0-1.9,0.73-3.48,2.18-4.76
			c1.45-1.29,3.26-1.93,5.42-1.93C133.96,322.52,136.23,323.93,137.87,326.76z"/>
		<path class="st0" d="M158.46,326.6v21.7h-3.82v-21.7h-5.81v-3.59h15.42v3.59H158.46z"/>
		<path class="st0" d="M179.36,323.01v25.28h-3.82v-25.28H179.36z"/>
		<path class="st0" d="M194.59,323.01l6.99,17.52l7.09-17.52h4.18l-11.35,27.18l-11.09-27.18H194.59z"/>
		<path class="st0" d="M236.61,342.15h-10.82l-2.82,6.14h-4.11l12.51-26.87l12.07,26.87h-4.17L236.61,342.15z M235.06,338.57
			l-3.75-8.6l-3.93,8.6H235.06z"/>
		<path class="st0" d="M258.3,323.01v21.7h7.43v3.59h-11.25v-25.28H258.3z"/>
		<path class="st0" d="M295.46,348.29v-25.28h5.31c2.54,0,4.55,0.25,6.03,0.75c1.58,0.49,3.02,1.33,4.31,2.51
			c2.61,2.38,3.91,5.51,3.91,9.38c0,3.89-1.36,7.03-4.08,9.43c-1.36,1.2-2.79,2.04-4.29,2.51c-1.4,0.47-3.38,0.7-5.94,0.7H295.46z
			 M299.28,344.71H301c1.71,0,3.14-0.18,4.27-0.54c1.14-0.38,2.16-0.99,3.08-1.82c1.88-1.71,2.82-3.95,2.82-6.7
			c0-2.77-0.93-5.02-2.78-6.75c-1.67-1.54-4.13-2.31-7.39-2.31h-1.72V344.71z"/>
		<path class="st0" d="M341.64,326.6h-10.14v6.08h9.84v3.59h-9.84v8.45h10.14v3.59h-13.95v-25.28h13.95V326.6z"/>
		<path class="st0" d="M391.45,324.36v4.51c-2.2-1.84-4.49-2.77-6.84-2.77c-2.6,0-4.79,0.93-6.57,2.8
			c-1.79,1.86-2.69,4.13-2.69,6.81c0,2.65,0.89,4.89,2.69,6.71c1.79,1.82,3.98,2.73,6.58,2.73c1.34,0,2.48-0.22,3.42-0.66
			c0.52-0.22,1.07-0.51,1.63-0.88c0.56-0.37,1.15-0.82,1.78-1.34v4.61c-2.18,1.24-4.48,1.86-6.88,1.86c-3.61,0-6.7-1.26-9.25-3.78
			c-2.54-2.54-3.82-5.61-3.82-9.2c0-3.22,1.06-6.09,3.19-8.61c2.62-3.09,6.01-4.63,10.17-4.63
			C387.14,322.52,389.33,323.13,391.45,324.36z"/>
		<path class="st0" d="M407.96,323.01v25.28h-3.82v-25.28H407.96z"/>
		<path class="st0" d="M430.48,337.52l7.83,10.77h-4.67l-7.22-10.35h-0.69v10.35h-3.82v-25.28h4.47c3.34,0,5.75,0.63,7.24,1.88
			c1.64,1.4,2.46,3.24,2.46,5.53c0,1.79-0.51,3.33-1.54,4.62S432.16,337.16,430.48,337.52z M425.73,334.62h1.21
			c3.61,0,5.42-1.38,5.42-4.14c0-2.59-1.76-3.88-5.27-3.88h-1.36V334.62z"/>
		<path class="st0" d="M468.09,324.36v4.51c-2.2-1.84-4.49-2.77-6.84-2.77c-2.6,0-4.79,0.93-6.57,2.8
			c-1.79,1.86-2.69,4.13-2.69,6.81c0,2.65,0.89,4.89,2.69,6.71c1.79,1.82,3.98,2.73,6.58,2.73c1.34,0,2.48-0.22,3.42-0.66
			c0.52-0.22,1.07-0.51,1.63-0.88c0.56-0.37,1.15-0.82,1.78-1.34v4.61c-2.18,1.24-4.48,1.86-6.88,1.86c-3.61,0-6.7-1.26-9.25-3.78
			c-2.54-2.54-3.82-5.61-3.82-9.2c0-3.22,1.06-6.09,3.19-8.61c2.62-3.09,6.01-4.63,10.17-4.63
			C463.78,322.52,465.98,323.13,468.09,324.36z"/>
		<path class="st0" d="M479.36,335.54c0-3.56,1.3-6.62,3.91-9.17c2.6-2.55,5.72-3.83,9.37-3.83c3.6,0,6.69,1.29,9.27,3.86
			c2.59,2.58,3.88,5.67,3.88,9.28c0,3.64-1.3,6.72-3.9,9.25c-2.61,2.54-5.76,3.82-9.45,3.82c-3.26,0-6.2-1.13-8.79-3.39
			C480.79,342.86,479.36,339.59,479.36,335.54z M483.21,335.58c0,2.79,0.94,5.09,2.82,6.89c1.87,1.8,4.02,2.7,6.47,2.7
			c2.65,0,4.89-0.92,6.71-2.75c1.82-1.85,2.73-4.11,2.73-6.77c0-2.69-0.9-4.95-2.7-6.77c-1.79-1.83-4.01-2.75-6.65-2.75
			c-2.63,0-4.85,0.92-6.67,2.75C484.12,330.68,483.21,332.92,483.21,335.58z"/>
		<path class="st0" d="M536.7,348.29v-25.28h5.31c2.54,0,4.55,0.25,6.03,0.75c1.58,0.49,3.02,1.33,4.31,2.51
			c2.61,2.38,3.91,5.51,3.91,9.38c0,3.89-1.36,7.03-4.08,9.43c-1.36,1.2-2.79,2.04-4.29,2.51c-1.4,0.47-3.38,0.7-5.94,0.7H536.7z
			 M540.52,344.71h1.72c1.71,0,3.14-0.18,4.27-0.54c1.14-0.38,2.16-0.99,3.08-1.82c1.88-1.71,2.82-3.95,2.82-6.7
			c0-2.77-0.93-5.02-2.78-6.75c-1.67-1.54-4.13-2.31-7.39-2.31h-1.72V344.71z"/>
		<path class="st0" d="M582.88,326.6h-10.14v6.08h9.84v3.59h-9.84v8.45h10.14v3.59h-13.95v-25.28h13.95V326.6z"/>
		<path class="st0" d="M628.3,326.76l-3.09,1.83c-0.58-1-1.13-1.66-1.65-1.97c-0.55-0.35-1.25-0.52-2.11-0.52
			c-1.06,0-1.94,0.3-2.64,0.9c-0.7,0.59-1.05,1.33-1.05,2.23c0,1.23,0.92,2.23,2.75,2.98l2.52,1.03c2.05,0.83,3.55,1.84,4.5,3.04
			c0.95,1.2,1.42,2.66,1.42,4.4c0,2.33-0.77,4.25-2.32,5.77c-1.56,1.53-3.5,2.29-5.81,2.29c-2.19,0-4.01-0.65-5.44-1.96
			c-1.41-1.3-2.29-3.14-2.64-5.49l3.86-0.85c0.18,1.48,0.48,2.51,0.92,3.08c0.79,1.09,1.93,1.64,3.44,1.64
			c1.19,0,2.18-0.4,2.96-1.19c0.79-0.8,1.18-1.81,1.18-3.03c0-0.49-0.07-0.94-0.2-1.35c-0.14-0.41-0.35-0.79-0.64-1.13
			c-0.29-0.34-0.66-0.67-1.12-0.97c-0.46-0.3-1-0.59-1.64-0.86l-2.44-1.01c-3.46-1.46-5.19-3.6-5.19-6.41c0-1.9,0.73-3.48,2.18-4.76
			c1.45-1.29,3.26-1.93,5.42-1.93C624.39,322.52,626.66,323.93,628.3,326.76z"/>
		<path class="st0" d="M655.39,326.6h-10.14v6.08h9.84v3.59h-9.84v8.45h10.14v3.59h-13.95v-25.28h13.95V326.6z"/>
		<path class="st0" d="M669.56,323.01l6.99,17.52l7.09-17.52h4.18l-11.35,27.18l-11.09-27.18H669.56z"/>
		<path class="st0" d="M702.65,323.01v25.28h-3.82v-25.28H702.65z"/>
		<path class="st0" d="M720.43,323.01v21.7h7.43v3.59h-11.25v-25.28H720.43z"/>
		<path class="st0" d="M743.17,323.01v21.7h7.43v3.59h-11.25v-25.28H743.17z"/>
		<path class="st0" d="M778.37,342.15h-10.82l-2.82,6.14h-4.11l12.51-26.87l12.07,26.87h-4.17L778.37,342.15z M776.81,338.57
			l-3.75-8.6l-3.93,8.6H776.81z"/>
	</g>
</g>
<g>
	<g>
		<path class="st0" d="M144.14,903.72v19.21c-9.39-7.86-19.11-11.79-29.15-11.79c-11.07,0-20.39,3.98-27.97,11.93
			c-7.63,7.9-11.44,17.57-11.44,29.01c0,11.3,3.81,20.83,11.44,28.59c7.63,7.77,16.97,11.65,28.04,11.65
			c5.72,0,10.58-0.93,14.57-2.79c2.23-0.93,4.54-2.18,6.94-3.77c2.39-1.58,4.92-3.49,7.57-5.72v19.63
			c-9.3,5.28-19.06,7.92-29.29,7.92c-15.39,0-28.52-5.37-39.4-16.11c-10.83-10.83-16.25-23.9-16.25-39.19
			c0-13.72,4.53-25.94,13.6-36.68c11.16-13.16,25.6-19.74,43.31-19.74C125.77,895.87,135.12,898.49,144.14,903.72z"/>
		<path class="st0" d="M195.17,897.97v107.68h-16.25V897.97H195.17z"/>
		<path class="st0" d="M271.81,959.76l33.34,45.89h-19.88l-30.76-44.08h-2.93v44.08h-16.25V897.97h19.04
			c14.23,0,24.5,2.67,30.82,8.02c6.98,5.95,10.46,13.81,10.46,23.57c0,7.63-2.19,14.18-6.56,19.67
			C284.73,954.71,278.97,958.22,271.81,959.76z M251.58,947.41h5.16c15.39,0,23.08-5.88,23.08-17.64c0-11.02-7.49-16.53-22.46-16.53
			h-5.79V947.41z"/>
		<path class="st0" d="M412.74,903.72v19.21c-9.39-7.86-19.11-11.79-29.15-11.79c-11.07,0-20.39,3.98-27.97,11.93
			c-7.63,7.9-11.44,17.57-11.44,29.01c0,11.3,3.81,20.83,11.44,28.59c7.63,7.77,16.97,11.65,28.04,11.65
			c5.72,0,10.58-0.93,14.57-2.79c2.23-0.93,4.54-2.18,6.94-3.77c2.39-1.58,4.92-3.49,7.57-5.72v19.63
			c-9.3,5.28-19.06,7.92-29.29,7.92c-15.39,0-28.52-5.37-39.4-16.11c-10.83-10.83-16.25-23.9-16.25-39.19
			c0-13.72,4.53-25.94,13.6-36.68c11.16-13.16,25.6-19.74,43.31-19.74C394.37,895.87,403.72,898.49,412.74,903.72z"/>
		<path class="st0" d="M513.36,979.49h-46.1l-12,26.15h-17.5l53.28-114.44l51.4,114.44h-17.78L513.36,979.49z M506.73,964.22
			l-15.97-36.61l-16.74,36.61H506.73z"/>
		<path class="st0" d="M570.18,1005.65V897.97h22.59c10.83,0,19.39,1.07,25.67,3.21c6.74,2.09,12.85,5.65,18.34,10.67
			c11.11,10.14,16.67,23.46,16.67,39.96c0,16.55-5.79,29.94-17.37,40.17c-5.81,5.12-11.9,8.67-18.27,10.67c-5.95,2-14.39,3-25.31,3
			H570.18z M586.43,990.37h7.32c7.3,0,13.37-0.77,18.2-2.3c4.83-1.63,9.21-4.21,13.11-7.74c8-7.3,12-16.81,12-28.52
			c0-11.81-3.95-21.39-11.86-28.73c-7.11-6.56-17.6-9.83-31.45-9.83h-7.32V990.37z"/>
		<path class="st0" d="M746.12,979.49h-46.1l-12,26.15h-17.5l53.28-114.44l51.4,114.44h-17.78L746.12,979.49z M739.5,964.22
			l-15.97-36.61l-16.74,36.61H739.5z"/>
	</g>
	<g>
		<path class="st0" d="M78.43,1027.6h-8.81v6.08h8.5v3.59h-8.5v12.04h-3.82v-25.28h12.63V1027.6z"/>
		<path class="st0" d="M104.69,1027.6H94.55v6.08h9.84v3.59h-9.84v8.45h10.14v3.59H90.73v-25.28h13.95V1027.6z"/>
		<path class="st0" d="M131.87,1027.76l-3.09,1.83c-0.58-1-1.13-1.66-1.65-1.97c-0.55-0.35-1.25-0.52-2.11-0.52
			c-1.06,0-1.94,0.3-2.64,0.9c-0.7,0.59-1.05,1.33-1.05,2.23c0,1.23,0.92,2.23,2.75,2.98l2.52,1.03c2.05,0.83,3.55,1.84,4.5,3.04
			s1.42,2.66,1.42,4.4c0,2.33-0.77,4.25-2.32,5.77c-1.56,1.53-3.5,2.29-5.81,2.29c-2.19,0-4.01-0.65-5.44-1.96
			c-1.41-1.3-2.29-3.14-2.64-5.49l3.86-0.85c0.18,1.48,0.48,2.51,0.92,3.08c0.79,1.09,1.93,1.64,3.44,1.64
			c1.19,0,2.18-0.4,2.96-1.19c0.79-0.8,1.18-1.81,1.18-3.03c0-0.49-0.07-0.94-0.2-1.35c-0.14-0.41-0.35-0.79-0.64-1.13
			c-0.29-0.34-0.66-0.67-1.12-0.97c-0.46-0.3-1-0.59-1.64-0.86l-2.44-1.01c-3.46-1.46-5.19-3.6-5.19-6.41c0-1.9,0.73-3.48,2.18-4.76
			c1.45-1.29,3.26-1.93,5.42-1.93C127.96,1023.52,130.23,1024.93,131.87,1027.76z"/>
		<path class="st0" d="M152.46,1027.6v21.7h-3.82v-21.7h-5.81v-3.59h15.42v3.59H152.46z"/>
		<path class="st0" d="M173.36,1024.01v25.28h-3.82v-25.28H173.36z"/>
		<path class="st0" d="M188.59,1024.01l6.99,17.52l7.09-17.52h4.18l-11.35,27.18l-11.09-27.18H188.59z"/>
		<path class="st0" d="M230.61,1043.15h-10.82l-2.82,6.14h-4.11l12.51-26.87l12.07,26.87h-4.17L230.61,1043.15z M229.06,1039.57
			l-3.75-8.6l-3.93,8.6H229.06z"/>
		<path class="st0" d="M252.3,1024.01v21.7h7.43v3.59h-11.25v-25.28H252.3z"/>
		<path class="st0" d="M289.46,1049.29v-25.28h5.31c2.54,0,4.55,0.25,6.03,0.75c1.58,0.49,3.02,1.33,4.31,2.51
			c2.61,2.38,3.91,5.51,3.91,9.38c0,3.89-1.36,7.03-4.08,9.43c-1.36,1.2-2.79,2.04-4.29,2.51c-1.4,0.47-3.38,0.7-5.94,0.7H289.46z
			 M293.28,1045.71H295c1.71,0,3.14-0.18,4.27-0.54c1.14-0.38,2.16-0.99,3.08-1.82c1.88-1.71,2.82-3.95,2.82-6.7
			c0-2.77-0.93-5.02-2.78-6.75c-1.67-1.54-4.13-2.31-7.39-2.31h-1.72V1045.71z"/>
		<path class="st0" d="M335.64,1027.6h-10.14v6.08h9.84v3.59h-9.84v8.45h10.14v3.59h-13.95v-25.28h13.95V1027.6z"/>
		<path class="st0" d="M385.45,1025.36v4.51c-2.2-1.84-4.49-2.77-6.84-2.77c-2.6,0-4.79,0.93-6.57,2.8
			c-1.79,1.86-2.69,4.13-2.69,6.81c0,2.65,0.89,4.89,2.69,6.71c1.79,1.82,3.98,2.73,6.58,2.73c1.34,0,2.48-0.22,3.42-0.66
			c0.52-0.22,1.07-0.51,1.63-0.88c0.56-0.37,1.15-0.82,1.78-1.34v4.61c-2.18,1.24-4.48,1.86-6.88,1.86c-3.61,0-6.7-1.26-9.25-3.78
			c-2.54-2.54-3.82-5.61-3.82-9.2c0-3.22,1.06-6.09,3.19-8.61c2.62-3.09,6.01-4.63,10.17-4.63
			C381.14,1023.52,383.33,1024.13,385.45,1025.36z"/>
		<path class="st0" d="M401.96,1024.01v25.28h-3.82v-25.28H401.96z"/>
		<path class="st0" d="M424.48,1038.52l7.83,10.77h-4.67l-7.22-10.35h-0.69v10.35h-3.82v-25.28h4.47c3.34,0,5.75,0.63,7.24,1.88
			c1.64,1.4,2.46,3.24,2.46,5.53c0,1.79-0.51,3.33-1.54,4.62C427.51,1037.33,426.16,1038.16,424.48,1038.52z M419.73,1035.62h1.21
			c3.61,0,5.42-1.38,5.42-4.14c0-2.59-1.76-3.88-5.27-3.88h-1.36V1035.62z"/>
		<path class="st0" d="M462.09,1025.36v4.51c-2.2-1.84-4.49-2.77-6.84-2.77c-2.6,0-4.79,0.93-6.57,2.8
			c-1.79,1.86-2.69,4.13-2.69,6.81c0,2.65,0.89,4.89,2.69,6.71c1.79,1.82,3.98,2.73,6.58,2.73c1.34,0,2.48-0.22,3.42-0.66
			c0.52-0.22,1.07-0.51,1.63-0.88c0.56-0.37,1.15-0.82,1.78-1.34v4.61c-2.18,1.24-4.48,1.86-6.88,1.86c-3.61,0-6.7-1.26-9.25-3.78
			c-2.54-2.54-3.82-5.61-3.82-9.2c0-3.22,1.06-6.09,3.19-8.61c2.62-3.09,6.01-4.63,10.17-4.63
			C457.78,1023.52,459.98,1024.13,462.09,1025.36z"/>
		<path class="st0" d="M473.36,1036.54c0-3.56,1.3-6.62,3.91-9.17c2.6-2.55,5.72-3.83,9.37-3.83c3.6,0,6.69,1.29,9.27,3.86
			c2.59,2.58,3.88,5.67,3.88,9.28c0,3.64-1.3,6.72-3.9,9.25c-2.61,2.54-5.76,3.82-9.45,3.82c-3.26,0-6.2-1.13-8.79-3.39
			C474.79,1043.86,473.36,1040.59,473.36,1036.54z M477.21,1036.58c0,2.79,0.94,5.09,2.82,6.89c1.87,1.8,4.02,2.7,6.47,2.7
			c2.65,0,4.89-0.92,6.71-2.75c1.82-1.85,2.73-4.11,2.73-6.77c0-2.69-0.9-4.95-2.7-6.77c-1.79-1.83-4.01-2.75-6.65-2.75
			c-2.63,0-4.85,0.92-6.67,2.75C478.12,1031.68,477.21,1033.92,477.21,1036.58z"/>
		<path class="st0" d="M530.7,1049.29v-25.28h5.31c2.54,0,4.55,0.25,6.03,0.75c1.58,0.49,3.02,1.33,4.31,2.51
			c2.61,2.38,3.91,5.51,3.91,9.38c0,3.89-1.36,7.03-4.08,9.43c-1.36,1.2-2.79,2.04-4.29,2.51c-1.4,0.47-3.38,0.7-5.94,0.7H530.7z
			 M534.52,1045.71h1.72c1.71,0,3.14-0.18,4.27-0.54c1.14-0.38,2.16-0.99,3.08-1.82c1.88-1.71,2.82-3.95,2.82-6.7
			c0-2.77-0.93-5.02-2.78-6.75c-1.67-1.54-4.13-2.31-7.39-2.31h-1.72V1045.71z"/>
		<path class="st0" d="M576.88,1027.6h-10.14v6.08h9.84v3.59h-9.84v8.45h10.14v3.59h-13.95v-25.28h13.95V1027.6z"/>
		<path class="st0" d="M622.3,1027.76l-3.09,1.83c-0.58-1-1.13-1.66-1.65-1.97c-0.55-0.35-1.25-0.52-2.11-0.52
			c-1.06,0-1.94,0.3-2.64,0.9c-0.7,0.59-1.05,1.33-1.05,2.23c0,1.23,0.92,2.23,2.75,2.98l2.52,1.03c2.05,0.83,3.55,1.84,4.5,3.04
			s1.42,2.66,1.42,4.4c0,2.33-0.77,4.25-2.32,5.77c-1.56,1.53-3.5,2.29-5.81,2.29c-2.19,0-4.01-0.65-5.44-1.96
			c-1.41-1.3-2.29-3.14-2.64-5.49l3.86-0.85c0.18,1.48,0.48,2.51,0.92,3.08c0.79,1.09,1.93,1.64,3.44,1.64
			c1.19,0,2.18-0.4,2.96-1.19c0.79-0.8,1.18-1.81,1.18-3.03c0-0.49-0.07-0.94-0.2-1.35c-0.14-0.41-0.35-0.79-0.64-1.13
			c-0.29-0.34-0.66-0.67-1.12-0.97c-0.46-0.3-1-0.59-1.64-0.86l-2.44-1.01c-3.46-1.46-5.19-3.6-5.19-6.41c0-1.9,0.73-3.48,2.18-4.76
			c1.45-1.29,3.26-1.93,5.42-1.93C618.39,1023.52,620.66,1024.93,622.3,1027.76z"/>
		<path class="st0" d="M649.39,1027.6h-10.14v6.08h9.84v3.59h-9.84v8.45h10.14v3.59h-13.95v-25.28h13.95V1027.6z"/>
		<path class="st0" d="M663.56,1024.01l6.99,17.52l7.09-17.52h4.18l-11.35,27.18l-11.09-27.18H663.56z"/>
		<path class="st0" d="M696.65,1024.01v25.28h-3.82v-25.28H696.65z"/>
		<path class="st0" d="M714.43,1024.01v21.7h7.43v3.59h-11.25v-25.28H714.43z"/>
		<path class="st0" d="M737.17,1024.01v21.7h7.43v3.59h-11.25v-25.28H737.17z"/>
		<path class="st0" d="M772.37,1043.15h-10.82l-2.82,6.14h-4.11l12.51-26.87l12.07,26.87h-4.17L772.37,1043.15z M770.81,1039.57
			l-3.75-8.6l-3.93,8.6H770.81z"/>
	</g>
</g>
</svg>
